<svg xmlns="http://www.w3.org/2000/svg" viewBox="0 0 300 300"><path fill="#fcb41b" d="M128.438 7.538C28.321 22.157-27.856 126.551 16.921 214.77c36.912 72.722 128.114 101.17 202.259 63.088 64.979-33.374 94.804-109.558 69.356-177.166-24-63.762-91.683-103.144-160.098-93.154m2.062 14.004c-50.569 6.66-94.961 44.175-109.071 92.174C-2.475 195.03 56.143 275.463 143.09 280.655c63.575 3.796 123.532-41.14 136.97-102.655C299.432 89.32 222.997 9.36 130.5 21.542M83 84.5V91h27.333c15.034 0 27.565.232 27.849.515.793.794-.828 9.702-2.49 13.68l-1.486 3.555-13.853-3.357c-7.619-1.847-14.184-3.366-14.589-3.375-.404-.01-2.068 2.623-3.698 5.851l-2.963 5.869 13.367 3.772c16.997 4.796 16.725 4.616 13.012 8.578-7.296 7.787-23.535 16.217-39.577 20.546-3.523.95-6.578 1.857-6.789 2.014-.211.158.642 3.03 1.895 6.383l2.28 6.096 4.105-.655c18.164-2.897 39.152-14.073 51.293-27.313l5.19-5.659 11.553 5.741 11.552 5.74 3.572-7.093c1.965-3.901 3.409-7.257 3.208-7.457-.638-.638-12.064-5.563-17.764-7.657-7.374-2.71-7.546-2.956-5.534-7.959.955-2.373 2.279-7.24 2.943-10.815l1.207-6.5 21.372-.27c11.754-.149 21.666.076 22.027.5 1.261 1.48-5.046 49.631-6.748 51.52-1.307 1.45-3.332 1.75-11.827 1.75h-10.25l.467 4.25c1.044 9.505-.103 8.75 13.297 8.75 16.44 0 20.536-1.899 23.497-10.894 1.294-3.932 8.549-60.761 8.549-66.968V78H83v6.5m55.25 71.562c-6.302 4.837-6.268 4.553-1.142 9.485 4.695 4.518 10.799 12.435 13.264 17.203.923 1.787 2.087 3.25 2.584 3.25 1.248 0 13.019-7.349 13.033-8.136.05-2.865-19.381-25.905-21.799-25.848-.38.009-3.053 1.83-5.94 4.046M114 193.484v23.484l2.918 3.266 2.918 3.266h29.509c35.05 0 33.081.64 38.77-12.592 5.783-13.452 5.933-12.335-1.856-13.866-3.718-.731-7.283-1.523-7.923-1.76-.705-.26-2.086 2.437-3.5 6.837-2.935 9.132-2.996 9.152-27.065 8.709-14.523-.267-18.023-.607-18.794-1.828-1.469-2.328-1.234-32.613.273-35.044 1.813-2.925-.338-3.922-8.5-3.941L114 170v23.484m81.051-19.407c-2.997 2.193-5.648 4.186-5.891 4.43-.243.243 1.309 2.53 3.449 5.082 7.383 8.804 12.568 15.933 16.663 22.911 2.26 3.85 4.232 7.171 4.382 7.381.377.523 14.346-9.08 14.346-9.862 0-3.021-24.349-34.09-26.626-33.975-.481.025-3.326 1.839-6.323 4.033M82.996 180.25c-1.307 4.537-5.173 13.779-8.591 20.536l-6.213 12.285 7.038 3.545c5.837 2.939 7.259 3.317 8.333 2.214 2.703-2.776 9.424-16.735 12.903-26.798 1.99-5.757 4.286-11.205 5.101-12.106 1.192-1.317 1.233-1.843.208-2.678-1.162-.947-14.025-5.248-15.694-5.248-.389 0-1.778 3.713-3.085 8.25" fill-rule="evenodd"/></svg>